<svg width="17" height="16" viewBox="0 0 17 16" fill="none" xmlns="http://www.w3.org/2000/svg">
<path d="M14.9993 8.666V13.3333C14.9993 13.5101 14.9291 13.6797 14.8041 13.8047C14.6791 13.9298 14.5095 14 14.3327 14H8.99935V8.666H14.9993ZM7.66602 8.666V14H2.33268C2.15587 14 1.9863 13.9298 1.86128 13.8047C1.73625 13.6797 1.66602 13.5101 1.66602 13.3333V8.666H7.66602ZM7.66602 2V7.33267H1.66602V2.66667C1.66602 2.48986 1.73625 2.32029 1.86128 2.19526C1.9863 2.07024 2.15587 2 2.33268 2H7.66602ZM14.3327 2C14.5095 2 14.6791 2.07024 14.8041 2.19526C14.9291 2.32029 14.9993 2.48986 14.9993 2.66667V7.33267H8.99935V2H14.3327Z" fill="#0A2540"/>
</svg>
