<svg width="20" height="20" viewBox="0 0 20 20" fill="none" xmlns="http://www.w3.org/2000/svg">
<path d="M10.0007 0.833496C8.18766 0.833496 6.41538 1.37111 4.90793 2.37836C3.40048 3.3856 2.22556 4.81724 1.53176 6.49223C0.837956 8.16722 0.656426 10.0103 1.01012 11.7885C1.36382 13.5666 2.23686 15.2 3.51884 16.482C4.80082 17.764 6.43417 18.637 8.21233 18.9907C9.99049 19.3444 11.8336 19.1629 13.5086 18.4691C15.1836 17.7753 16.6152 16.6003 17.6225 15.0929C18.6297 13.5854 19.1673 11.8132 19.1673 10.0002C19.1647 7.56982 18.1981 5.23977 16.4796 3.52125C14.7611 1.80274 12.431 0.836125 10.0007 0.833496ZM16.8978 13.2627C14.0771 14.1428 11.0347 13.9851 8.3201 12.8181C8.80434 12.0679 9.41691 11.4088 10.1298 10.871C11.2095 11.3076 12.3628 11.534 13.5275 11.5379C14.9446 11.5377 16.3425 11.211 17.6128 10.583C17.5417 11.5127 17.2993 12.4212 16.8978 13.2627ZM17.5441 8.85662C16.8519 9.28785 16.0949 9.60508 15.302 9.7962C15.1376 7.34878 14.3274 4.98867 12.9538 2.95634C14.1593 3.46509 15.2142 4.27438 16.0178 5.30694C16.8214 6.3395 17.3469 7.56085 17.5441 8.85433V8.85662ZM10.572 2.3903C12.4792 4.4821 13.6116 7.16454 13.7804 9.99023C12.7365 10.0262 11.6963 9.84679 10.7248 9.46315C10.6497 8.18579 10.3087 6.93819 9.7236 5.80023C9.13851 4.66228 8.32223 3.65903 7.32704 2.85475C8.18122 2.53045 9.08699 2.36327 10.0007 2.36127C10.1939 2.36127 10.3826 2.37579 10.572 2.3903ZM5.78934 3.63315C6.50693 4.1011 7.14086 4.68623 7.66468 5.36412C5.37363 6.89656 3.58957 9.07518 2.53899 11.6234C2.20853 10.1191 2.34232 8.54993 2.92267 7.12326C3.50302 5.6966 4.50261 4.47962 5.78934 3.63315ZM3.40447 13.8349C4.15994 10.9136 5.95566 8.36847 8.45454 6.67725C8.90651 7.60626 9.1646 8.61756 9.21309 9.64954C8.18236 10.4328 7.32871 11.4249 6.70802 12.561C6.08734 13.697 5.71362 14.9514 5.61135 16.2419C4.71192 15.6068 3.95933 14.7859 3.40447 13.8349ZM10.0007 17.6391C9.01237 17.6388 8.03363 17.4457 7.11927 17.0707C7.10244 16.0854 7.27676 15.1061 7.6326 14.187C9.39043 14.9595 11.2889 15.3606 13.209 15.365C14.0215 15.3634 14.8323 15.2903 15.632 15.1465C14.9189 15.9315 14.0496 16.5587 13.0798 16.9879C12.11 17.4172 11.0612 17.639 10.0007 17.6391Z" fill="#FF5733"/>
</svg>
