<svg width="20" height="20" viewBox="0 0 20 20" fill="none" xmlns="http://www.w3.org/2000/svg">
<path d="M15.3033 14.4698L10 19.7731L4.69667 14.4698C3.64779 13.4209 2.93349 12.0845 2.64411 10.6296C2.35473 9.17479 2.50326 7.6668 3.07092 6.29636C3.63858 4.92592 4.59987 3.75458 5.83324 2.93048C7.0666 2.10637 8.51665 1.6665 10 1.6665C11.4834 1.6665 12.9334 2.10637 14.1668 2.93048C15.4001 3.75458 16.3614 4.92592 16.9291 6.29636C17.4968 7.6668 17.6453 9.17479 17.3559 10.6296C17.0665 12.0845 16.3522 13.4209 15.3033 14.4698ZM10 10.8331C10.442 10.8331 10.866 10.6575 11.1785 10.345C11.4911 10.0324 11.6667 9.60847 11.6667 9.16644C11.6667 8.72441 11.4911 8.30049 11.1785 7.98793C10.866 7.67537 10.442 7.49977 10 7.49977C9.55798 7.49977 9.13405 7.67537 8.82149 7.98793C8.50893 8.30049 8.33334 8.72441 8.33334 9.16644C8.33334 9.60847 8.50893 10.0324 8.82149 10.345C9.13405 10.6575 9.55798 10.8331 10 10.8331Z" fill="#425466"/>
</svg>
