<svg width="20" height="20" viewBox="0 0 20 20" fill="none" xmlns="http://www.w3.org/2000/svg">
<g clip-path="url(#clip0_1450_5669)">
<path fill-rule="evenodd" clip-rule="evenodd" d="M14.5033 1.63554C14.5033 1.17452 14.1296 0.800781 13.6686 0.800781C13.2076 0.800781 12.8338 1.17452 12.8338 1.63554V2.93389C11.8273 3.2898 11.1061 4.24984 11.1061 5.3783C11.1061 6.42367 11.725 7.3245 12.6163 7.73444V12.8114C12.6163 14.7766 11.0232 16.3697 9.05795 16.3697C7.09273 16.3697 5.4996 14.7766 5.4996 12.8114V11.3122L6.71044 12.5231C7.03643 12.849 7.56498 12.849 7.89097 12.523C8.21697 12.1971 8.21697 11.6685 7.89097 11.3425L5.25511 8.70665C5.01637 8.46791 4.65732 8.3965 4.34539 8.5257C4.03346 8.65491 3.83008 8.95929 3.83008 9.29692V12.8114C3.83008 15.6987 6.17068 18.0393 9.05795 18.0393C11.9452 18.0393 14.2858 15.6987 14.2858 12.8114V7.9034C15.4342 7.63718 16.2901 6.60769 16.2901 5.3783C16.2901 4.22788 15.5407 3.25251 14.5033 2.9138V1.63554ZM13.6981 4.45582C13.1887 4.45582 12.7756 4.86883 12.7756 5.3783C12.7756 5.88777 13.1887 6.30078 13.6981 6.30078C14.2076 6.30078 14.6206 5.88777 14.6206 5.3783C14.6206 4.86883 14.2076 4.45582 13.6981 4.45582Z" fill="#425466"/>
</g>
<defs>
<clipPath id="clip0_1450_5669">
<rect width="20" height="20" fill="white"/>
</clipPath>
</defs>
</svg>
