<svg width="17" height="16" viewBox="0 0 17 16" fill="none" xmlns="http://www.w3.org/2000/svg">
<path d="M15.3333 6.66667V13.3333C15.3333 13.5101 15.2631 13.6797 15.1381 13.8047C15.013 13.9298 14.8435 14 14.6667 14H2.66667C2.48986 14 2.32029 13.9298 2.19526 13.8047C2.07024 13.6797 2 13.5101 2 13.3333V6.66667H15.3333ZM15.3333 5.33333H2V2.66667C2 2.48986 2.07024 2.32029 2.19526 2.19526C2.32029 2.07024 2.48986 2 2.66667 2H14.6667C14.8435 2 15.013 2.07024 15.1381 2.19526C15.2631 2.32029 15.3333 2.48986 15.3333 2.66667V5.33333ZM10.6667 10.6667V12H13.3333V10.6667H10.6667Z" fill="white"/>
</svg>
