<svg width="17" height="16" viewBox="0 0 17 16" fill="none" xmlns="http://www.w3.org/2000/svg">
<path d="M8.66602 9.5C8.80412 9.49657 8.9225 9.45201 9.02904 9.35945L12.0319 6.69246C12.1187 6.61361 12.166 6.52106 12.166 6.40793C12.166 6.17826 11.9608 6 11.6965 6C11.5702 6 11.4518 6.04456 11.3611 6.12341L8.66602 8.52302L5.97098 6.12341C5.88022 6.04456 5.76579 6 5.63558 6C5.3712 6 5.16602 6.17826 5.16602 6.40793C5.16602 6.51763 5.21337 6.61361 5.30018 6.69246L8.30694 9.35945C8.40953 9.45544 8.52791 9.5 8.66602 9.5Z" fill="#FF5733"/>
</svg>
