<svg width="20" height="20" viewBox="0 0 20 20" fill="none" xmlns="http://www.w3.org/2000/svg">
<g clip-path="url(#clip0_1450_5666)">
<g clip-path="url(#clip1_1450_5666)">
<path d="M3.51862 16.4811C4.8003 17.7616 6.43285 18.6334 8.20988 18.9862C9.98692 19.339 11.8287 19.1571 13.5023 18.4634C15.176 17.7697 16.6064 16.5953 17.6128 15.0888C18.6191 13.5823 19.1562 11.8113 19.1562 9.99954C19.1563 8.18781 18.6191 6.41676 17.6128 4.91024C16.6064 3.40373 15.176 2.2294 13.5023 1.53569C11.8287 0.841986 9.98692 0.660046 8.20988 1.01287C6.43285 1.3657 4.8003 2.23746 3.51862 3.51794C1.8021 5.23829 0.838091 7.56929 0.838091 9.99954C0.838091 12.4298 1.8021 14.7608 3.51862 16.4811ZM2.41175 10.8154C3.32778 10.7042 4.2571 10.803 5.12935 11.104C6.0016 11.4051 6.79393 11.9007 7.44638 12.5532C8.09882 13.2057 8.59428 13.9981 8.89526 14.8704C9.19624 15.7427 9.29485 16.672 9.18362 17.588C7.44981 17.4057 5.83116 16.6336 4.59848 15.4008C3.3658 14.1679 2.59384 12.5492 2.41175 10.8154ZM17.5887 9.1837C16.6727 9.29482 15.7433 9.19611 14.8711 8.89503C13.9988 8.59396 13.2065 8.0984 12.5541 7.44589C11.9016 6.79337 11.4062 6.00098 11.1052 5.12869C10.8042 4.25641 10.7056 3.32709 10.8168 2.41106C12.5506 2.59335 14.1693 3.36549 15.402 4.59831C16.6346 5.83113 17.4066 7.44986 17.5887 9.1837ZM4.59876 4.60037C5.85376 3.34262 7.50985 2.56445 9.27911 2.40113C9.16949 3.52155 9.30959 4.65233 9.68934 5.71211C10.0691 6.77189 10.679 7.73432 11.4753 8.53014C12.2715 9.32595 13.2343 9.93537 14.2943 10.3145C15.3543 10.6937 16.4851 10.8332 17.6055 10.7229C17.4393 12.4919 16.6605 14.1472 15.4035 15.4029C14.1466 16.6586 12.4904 17.4358 10.7213 17.6002C10.8241 16.5411 10.704 15.4721 10.369 14.4621C10.0339 13.4521 9.49128 12.5233 8.77588 11.7355C8.06047 10.9478 7.18816 10.3184 6.215 9.88784C5.24184 9.45731 4.18936 9.23515 3.12522 9.23565C2.88307 9.23565 2.64015 9.24787 2.39724 9.27079C2.56316 7.50399 3.34199 5.85092 4.59876 4.59808V4.60037Z" fill="#425466"/>
</g>
</g>
<defs>
<clipPath id="clip0_1450_5666">
<rect width="20" height="20" fill="white"/>
</clipPath>
<clipPath id="clip1_1450_5666">
<rect width="18.3333" height="18.3333" fill="white" transform="matrix(-1 0 0 -1 19.166 19.1665)"/>
</clipPath>
</defs>
</svg>
