<svg width="21" height="20" viewBox="0 0 21 20" fill="none" xmlns="http://www.w3.org/2000/svg">
<path d="M15.3592 13.8478L18.9283 17.4162L17.7492 18.5953L14.1808 15.0262C12.8531 16.0905 11.2017 16.6694 9.5 16.667C5.36 16.667 2 13.307 2 9.16699C2 5.02699 5.36 1.66699 9.5 1.66699C13.64 1.66699 17 5.02699 17 9.16699C17.0024 10.8687 16.4235 12.5201 15.3592 13.8478ZM13.6875 13.2295C14.7451 12.1419 15.3357 10.684 15.3333 9.16699C15.3333 5.94366 12.7225 3.33366 9.5 3.33366C6.27667 3.33366 3.66667 5.94366 3.66667 9.16699C3.66667 12.3895 6.27667 15.0003 9.5 15.0003C11.017 15.0027 12.4749 14.4121 13.5625 13.3545L13.6875 13.2295Z" fill="#86909F"/>
</svg>
