<svg width="20" height="20" viewBox="0 0 20 20" fill="none" xmlns="http://www.w3.org/2000/svg">
<path d="M11.625 1.6665H16.6667C16.8877 1.6665 17.0996 1.7543 17.2559 1.91058C17.4122 2.06686 17.5 2.27882 17.5 2.49984V17.4998C17.5 17.7209 17.4122 17.9328 17.2559 18.0891C17.0996 18.2454 16.8877 18.3332 16.6667 18.3332H3.33333C3.11232 18.3332 2.90036 18.2454 2.74408 18.0891C2.5878 17.9328 2.5 17.7209 2.5 17.4998V10.7915C2.77417 10.819 3.0525 10.8332 3.33333 10.8332C7.93583 10.8332 11.6667 7.10234 11.6667 2.49984C11.6667 2.219 11.6525 1.94067 11.625 1.6665ZM12.5 13.3332V14.9998H14.1667V13.3332H12.5ZM9.94833 1.6665C10.0755 2.67495 9.97038 3.69912 9.64103 4.66072C9.31168 5.62231 8.76682 6.49587 8.04809 7.21459C7.32936 7.93332 6.45581 8.47819 5.49421 8.80754C4.53262 9.13689 3.50845 9.242 2.5 9.11484V2.49984C2.5 2.27882 2.5878 2.06686 2.74408 1.91058C2.90036 1.7543 3.11232 1.6665 3.33333 1.6665H9.94833Z" fill="#86909F"/>
</svg>
