<svg width="20" height="20" viewBox="0 0 20 20" fill="none" xmlns="http://www.w3.org/2000/svg">
<path d="M10.0007 15.8335H11.6673V5.00017L16.9957 7.2835C17.1457 7.3478 17.2735 7.45474 17.3632 7.59103C17.453 7.72732 17.5008 7.88697 17.5007 8.05017V15.8335H19.1673V17.5002H0.833984V15.8335H2.50065V4.7085C2.50063 4.54727 2.54739 4.38949 2.63525 4.25429C2.72311 4.1191 2.8483 4.0123 2.99565 3.94684L9.41482 1.0935C9.47832 1.06529 9.54788 1.05341 9.61715 1.05894C9.68642 1.06447 9.75321 1.08724 9.81143 1.12517C9.86965 1.1631 9.91747 1.215 9.95052 1.27613C9.98356 1.33726 10.0008 1.40568 10.0007 1.47517V15.8335Z" fill="#86909F"/>
</svg>
