<svg width="20" height="20" viewBox="0 0 20 20" fill="none" xmlns="http://www.w3.org/2000/svg">
<path d="M3.33333 1.6665H16.6667C16.8877 1.6665 17.0996 1.7543 17.2559 1.91058C17.4122 2.06686 17.5 2.27882 17.5 2.49984V18.5632C17.5001 18.6327 17.4827 18.7011 17.4496 18.7623C17.4164 18.8234 17.3685 18.8752 17.3102 18.9131C17.2519 18.9509 17.185 18.9736 17.1157 18.979C17.0464 18.9844 16.9768 18.9724 16.9133 18.944L10 15.8582L3.08667 18.9432C3.02325 18.9715 2.95376 18.9835 2.88451 18.9782C2.81526 18.9728 2.74844 18.9502 2.69015 18.9125C2.63185 18.8747 2.58392 18.823 2.55071 18.762C2.5175 18.701 2.50007 18.6326 2.5 18.5632V2.49984C2.5 2.27882 2.5878 2.06686 2.74408 1.91058C2.90036 1.7543 3.11232 1.6665 3.33333 1.6665ZM10 11.2498L12.4492 12.5373L11.9817 9.81067L13.9625 7.879L11.2242 7.48067L10 4.99984L8.775 7.48067L6.0375 7.879L8.01833 9.81067L7.55167 12.5373L10 11.2498Z" fill="#86909F"/>
</svg>
