<svg width="20" height="20" viewBox="0 0 20 20" fill="none" xmlns="http://www.w3.org/2000/svg">
<path d="M10.0007 11.6663V18.333H3.33398C3.33398 16.5649 4.03636 14.8692 5.28661 13.619C6.53685 12.3687 8.23254 11.6663 10.0007 11.6663ZM15.0007 17.9163L12.5515 19.2038L13.019 16.4772L11.0382 14.5455L13.7765 14.1472L15.0007 11.6663L16.2256 14.1472L18.9632 14.5455L16.9823 16.4772L17.449 19.2038L15.0007 17.9163ZM10.0007 10.833C7.23815 10.833 5.00065 8.59551 5.00065 5.83301C5.00065 3.07051 7.23815 0.833008 10.0007 0.833008C12.7632 0.833008 15.0007 3.07051 15.0007 5.83301C15.0007 8.59551 12.7632 10.833 10.0007 10.833Z" fill="#86909F"/>
</svg>
