<svg width="20" height="20" viewBox="0 0 20 20" fill="none" xmlns="http://www.w3.org/2000/svg">
<path d="M15.8327 18.3337H4.16602C3.50297 18.3337 2.86709 18.0703 2.39825 17.6014C1.92941 17.1326 1.66602 16.4967 1.66602 15.8337V2.50033C1.66602 2.27931 1.75381 2.06735 1.91009 1.91107C2.06637 1.75479 2.27834 1.66699 2.49935 1.66699H14.166C14.387 1.66699 14.599 1.75479 14.7553 1.91107C14.9116 2.06735 14.9993 2.27931 14.9993 2.50033V12.5003H18.3327V15.8337C18.3327 16.4967 18.0693 17.1326 17.6004 17.6014C17.1316 18.0703 16.4957 18.3337 15.8327 18.3337ZM14.9993 14.167V15.8337C14.9993 16.0547 15.0871 16.2666 15.2434 16.4229C15.3997 16.5792 15.6117 16.667 15.8327 16.667C16.0537 16.667 16.2657 16.5792 16.4219 16.4229C16.5782 16.2666 16.666 16.0547 16.666 15.8337V14.167H14.9993ZM4.99935 5.83366V7.50033H11.666V5.83366H4.99935ZM4.99935 9.16699V10.8337H11.666V9.16699H4.99935ZM4.99935 12.5003V14.167H9.16602V12.5003H4.99935Z" fill="#86909F"/>
</svg>
