<svg width="20" height="20" viewBox="0 0 20 20" fill="none" xmlns="http://www.w3.org/2000/svg">
<path d="M6.34833 7.26L9.01917 5.32C9.31899 5.10059 9.68367 4.98793 10.055 5C10.5079 5.01129 10.9461 5.16342 11.3085 5.43524C11.671 5.70705 11.9398 6.08504 12.0775 6.51667C12.2325 7.0025 12.3742 7.33083 12.5025 7.50167C12.8903 8.019 13.3933 8.43884 13.9716 8.72786C14.5499 9.01688 15.1876 9.16712 15.8342 9.16667V10.8333C14.9736 10.8343 14.1235 10.6444 13.3451 10.2774C12.5667 9.91038 11.8793 9.37535 11.3325 8.71083L10.7517 12.0067L12.4692 13.4483L14.3217 18.5383L12.755 19.1083L11.055 14.4383L8.23 12.0675C7.99817 11.8803 7.82076 11.6344 7.71626 11.3553C7.61176 11.0762 7.58399 10.7743 7.63583 10.4808L8.06 8.07667L7.49583 8.48667L5.72333 10.9267L4.375 9.94667L6.33417 7.25L6.34833 7.26ZM11.2508 4.58333C10.8088 4.58333 10.3849 4.40774 10.0723 4.09518C9.75976 3.78262 9.58417 3.35869 9.58417 2.91667C9.58417 2.47464 9.75976 2.05072 10.0723 1.73816C10.3849 1.42559 10.8088 1.25 11.2508 1.25C11.6929 1.25 12.1168 1.42559 12.4293 1.73816C12.7419 2.05072 12.9175 2.47464 12.9175 2.91667C12.9175 3.35869 12.7419 3.78262 12.4293 4.09518C12.1168 4.40774 11.6929 4.58333 11.2508 4.58333ZM8.77417 15.5675L6.09583 18.7592L4.81917 17.6883L7.29917 14.7333L7.92083 12.9167L9.41333 14.1667L8.77417 15.5675Z" fill="#86909F"/>
</svg>
