<svg width="20" height="20" viewBox="0 0 20 20" fill="none" xmlns="http://www.w3.org/2000/svg">
<path d="M8.29536 1.84128C9.41947 1.60555 10.5802 1.60499 11.7045 1.83961C11.7794 2.33402 11.9648 2.80518 12.2468 3.21809C12.5289 3.631 12.9004 3.97503 13.3337 4.22461C13.7667 4.47505 14.2505 4.62466 14.7493 4.66232C15.248 4.69997 15.7489 4.62471 16.2145 4.44211C16.9798 5.29883 17.5594 6.30464 17.917 7.39628C17.5265 7.70843 17.2113 8.10457 16.9949 8.55527C16.7785 9.00597 16.6664 9.49965 16.667 9.99961C16.667 11.0529 17.1554 11.9921 17.9187 12.6029C17.559 13.6937 16.9786 14.6987 16.2137 15.5554C15.7482 15.373 15.2475 15.2978 14.7489 15.3354C14.2503 15.3731 13.7666 15.5226 13.3337 15.7729C12.9007 16.0224 12.5295 16.3663 12.2476 16.7789C11.9658 17.1915 11.7804 17.6622 11.7054 18.1563C10.5814 18.3925 9.42065 18.3937 8.2962 18.1596C8.22165 17.6648 8.03645 17.1931 7.75438 16.7797C7.47231 16.3664 7.10064 16.0219 6.66703 15.7721C6.234 15.5218 5.75011 15.3723 5.25135 15.3348C4.7526 15.2973 4.2518 15.3727 3.7862 15.5554C3.02086 14.6985 2.4412 13.6924 2.0837 12.6004C2.47403 12.2885 2.78908 11.8926 3.00548 11.4422C3.22187 10.9918 3.33406 10.4985 3.3337 9.99878C3.33411 9.49868 3.22179 9.00492 3.00509 8.55421C2.78839 8.10349 2.47288 7.70743 2.08203 7.39544C2.44175 6.30471 3.02213 5.29969 3.78703 4.44294C4.25257 4.62541 4.75326 4.70061 5.25186 4.66295C5.75046 4.6253 6.23417 4.47576 6.66703 4.22544C7.09999 3.97594 7.47119 3.63213 7.75308 3.21953C8.03497 2.80693 8.22032 2.33614 8.29536 1.84211V1.84128ZM10.0004 12.4996C10.6634 12.4996 11.2993 12.2362 11.7681 11.7674C12.237 11.2985 12.5004 10.6627 12.5004 9.99961C12.5004 9.33657 12.237 8.70068 11.7681 8.23184C11.2993 7.763 10.6634 7.49961 10.0004 7.49961C9.33732 7.49961 8.70144 7.763 8.2326 8.23184C7.76376 8.70068 7.50036 9.33657 7.50036 9.99961C7.50036 10.6627 7.76376 11.2985 8.2326 11.7674C8.70144 12.2362 9.33732 12.4996 10.0004 12.4996Z" fill="#86909F"/>
</svg>
