<svg width="20" height="20" viewBox="0 0 20 20" fill="none" xmlns="http://www.w3.org/2000/svg">
<path d="M16.6667 18.3332H3.33333C3.11232 18.3332 2.90036 18.2454 2.74408 18.0891C2.5878 17.9328 2.5 17.7209 2.5 17.4998V2.49984C2.5 2.27882 2.5878 2.06686 2.74408 1.91058C2.90036 1.7543 3.11232 1.6665 3.33333 1.6665H16.6667C16.8877 1.6665 17.0996 1.7543 17.2559 1.91058C17.4122 2.06686 17.5 2.27882 17.5 2.49984V17.4998C17.5 17.7209 17.4122 17.9328 17.2559 18.0891C17.0996 18.2454 16.8877 18.3332 16.6667 18.3332ZM6.66667 5.83317V7.49984H13.3333V5.83317H6.66667ZM6.66667 9.1665V10.8332H13.3333V9.1665H6.66667ZM6.66667 12.4998V14.1665H13.3333V12.4998H6.66667Z" fill="#86909F"/>
</svg>
