<svg width="20" height="20" viewBox="0 0 20 20" fill="none" xmlns="http://www.w3.org/2000/svg">
<path d="M9.99935 9.16699C11.1044 9.16699 12.1642 9.60598 12.9456 10.3874C13.727 11.1688 14.166 12.2286 14.166 13.3337V18.3337H5.83268V13.3337C5.83268 12.2286 6.27167 11.1688 7.05307 10.3874C7.83447 9.60598 8.89428 9.16699 9.99935 9.16699ZM4.40602 11.672C4.2734 12.1193 4.19506 12.581 4.17268 13.047L4.16602 13.3337V18.3337H1.66602V14.5837C1.66585 13.865 1.93104 13.1715 2.41071 12.6363C2.89038 12.1011 3.55076 11.7619 4.26518 11.6837L4.40685 11.672H4.40602ZM15.5927 11.672C16.3343 11.7172 17.0307 12.0436 17.5398 12.5847C18.049 13.1258 18.3326 13.8407 18.3327 14.5837V18.3337H15.8327V13.3337C15.8327 12.7562 15.7493 12.1987 15.5927 11.672ZM4.58268 6.66699C5.13522 6.66699 5.66512 6.88649 6.05582 7.27719C6.44652 7.66789 6.66602 8.19779 6.66602 8.75033C6.66602 9.30286 6.44652 9.83276 6.05582 10.2235C5.66512 10.6142 5.13522 10.8337 4.58268 10.8337C4.03015 10.8337 3.50024 10.6142 3.10954 10.2235C2.71884 9.83276 2.49935 9.30286 2.49935 8.75033C2.49935 8.19779 2.71884 7.66789 3.10954 7.27719C3.50024 6.88649 4.03015 6.66699 4.58268 6.66699ZM15.416 6.66699C15.9686 6.66699 16.4985 6.88649 16.8892 7.27719C17.2799 7.66789 17.4993 8.19779 17.4993 8.75033C17.4993 9.30286 17.2799 9.83276 16.8892 10.2235C16.4985 10.6142 15.9686 10.8337 15.416 10.8337C14.8635 10.8337 14.3336 10.6142 13.9429 10.2235C13.5522 9.83276 13.3327 9.30286 13.3327 8.75033C13.3327 8.19779 13.5522 7.66789 13.9429 7.27719C14.3336 6.88649 14.8635 6.66699 15.416 6.66699ZM9.99935 1.66699C10.8834 1.66699 11.7313 2.01818 12.3564 2.6433C12.9815 3.26842 13.3327 4.11627 13.3327 5.00033C13.3327 5.88438 12.9815 6.73223 12.3564 7.35735C11.7313 7.98247 10.8834 8.33366 9.99935 8.33366C9.11529 8.33366 8.26745 7.98247 7.64233 7.35735C7.01721 6.73223 6.66602 5.88438 6.66602 5.00033C6.66602 4.11627 7.01721 3.26842 7.64233 2.6433C8.26745 2.01818 9.11529 1.66699 9.99935 1.66699Z" fill="#86909F"/>
</svg>
