<svg width="20" height="20" viewBox="0 0 20 20" fill="none" xmlns="http://www.w3.org/2000/svg">
<path d="M16.5951 9.99724L18.092 8.53223C18.5382 8.10981 18.3302 7.35909 17.7449 7.21912L15.7055 6.69861L16.2804 4.67989C16.4429 4.09923 15.8953 3.55154 15.3149 3.71404L13.2968 4.28914L12.7765 2.24907C12.6388 1.67293 11.8797 1.46222 11.4639 1.9018L9.99934 3.41033L8.53485 1.90184C8.12372 1.46723 7.36145 1.66636 7.22219 2.2491L6.70188 4.28917L4.68382 3.71407C4.10319 3.55151 3.55586 4.09939 3.71829 4.67993L4.29319 6.69864L2.25381 7.21915C1.66826 7.35916 1.46061 8.11 1.90664 8.53223L3.40355 9.99724L1.90664 11.4622C1.46042 11.8846 1.66849 12.6354 2.25377 12.7753L4.29316 13.2958L3.71826 15.3146C3.55579 15.8952 4.10332 16.4429 4.68378 16.2804L6.70182 15.7053L7.22213 17.7454C7.36663 18.35 8.12369 18.5272 8.53479 18.0926L9.99934 16.5952L11.4638 18.0926C11.8707 18.5317 12.6353 18.3363 12.7765 17.7454L13.2968 15.7053L15.3148 16.2804C15.8954 16.443 16.4428 15.8951 16.2804 15.3146L15.7055 13.2958L17.7448 12.7753C18.3304 12.6353 18.538 11.8845 18.092 11.4622L16.5951 9.99724Z" fill="#86909F"/>
</svg>
