<svg width="20" height="20" viewBox="0 0 20 20" fill="none" xmlns="http://www.w3.org/2000/svg">
<path d="M17.8984 4.90781C17.7831 4.7432 17.6298 4.60883 17.4515 4.51608C17.2732 4.42332 17.0751 4.37493 16.8741 4.375H10.6241V1.875H11.8741C12.0399 1.875 12.1989 1.80915 12.3161 1.69194C12.4333 1.57473 12.4991 1.41576 12.4991 1.25C12.4991 1.08424 12.4333 0.925268 12.3161 0.808058C12.1989 0.690848 12.0399 0.625 11.8741 0.625H8.12415C7.95839 0.625 7.79942 0.690848 7.68221 0.808058C7.565 0.925268 7.49915 1.08424 7.49915 1.25C7.49915 1.41576 7.565 1.57473 7.68221 1.69194C7.79942 1.80915 7.95839 1.875 8.12415 1.875H9.37415V4.375H3.12415C2.92345 4.37545 2.72581 4.42422 2.54794 4.51718C2.37008 4.61015 2.21721 4.74458 2.10226 4.9091C1.98732 5.07362 1.91368 5.2634 1.88757 5.46239C1.86147 5.66139 1.88366 5.86374 1.95227 6.05234L3.99837 11.6773C4.08591 11.918 4.24526 12.1259 4.45485 12.2731C4.66444 12.4202 4.91416 12.4994 5.17024 12.5H14.8288C15.0849 12.4994 15.3346 12.4202 15.5442 12.2731C15.7538 12.1259 15.9132 11.918 16.0007 11.6773L18.0468 6.05234C18.1159 5.86368 18.1384 5.66116 18.1126 5.46192C18.0867 5.26269 18.0133 5.07262 17.8984 4.90781ZM8.00852 11.2398C7.97141 11.2467 7.93375 11.2501 7.89602 11.25C7.74979 11.2498 7.60826 11.1983 7.49606 11.1045C7.38386 11.0108 7.3081 10.8806 7.28196 10.7367L6.48352 6.36172C6.46885 6.28093 6.47024 6.19803 6.4876 6.11777C6.50497 6.03752 6.53797 5.96146 6.58472 5.89396C6.67915 5.75763 6.82387 5.6644 6.98704 5.63477C7.15021 5.60514 7.31847 5.64154 7.4548 5.73597C7.5223 5.78272 7.57993 5.84232 7.62441 5.91135C7.66888 5.98037 7.69932 6.05749 7.71399 6.13828L8.5093 10.5133C8.53896 10.676 8.50291 10.8438 8.40904 10.98C8.31517 11.1162 8.17115 11.2097 8.00852 11.2398ZM13.5148 6.36172L12.7187 10.7367C12.6925 10.8806 12.6168 11.0108 12.5046 11.1045C12.3924 11.1983 12.2508 11.2498 12.1046 11.25C12.0669 11.2501 12.0292 11.2467 11.9921 11.2398C11.8291 11.2102 11.6845 11.117 11.5901 10.9807C11.4958 10.8445 11.4594 10.6763 11.489 10.5133L12.2843 6.13828C12.3139 5.97511 12.4072 5.83039 12.5435 5.73597C12.6798 5.64154 12.8481 5.60514 13.0113 5.63477C13.1744 5.6644 13.3191 5.75763 13.4136 5.89396C13.508 6.03029 13.5444 6.19855 13.5148 6.36172ZM12.4991 14.0625V17.5C12.4991 17.6658 12.4333 17.8247 12.3161 17.9419C12.1989 18.0592 12.0399 18.125 11.8741 18.125H8.12415C7.95839 18.125 7.79942 18.0592 7.68221 17.9419C7.565 17.8247 7.49915 17.6658 7.49915 17.5V14.0625C7.49915 13.9796 7.53207 13.9001 7.59068 13.8415C7.64928 13.7829 7.72877 13.75 7.81165 13.75H12.1866C12.2695 13.75 12.349 13.7829 12.4076 13.8415C12.4662 13.9001 12.4991 13.9796 12.4991 14.0625Z" fill="white"/>
</svg>
