<svg width="242" height="26" viewBox="0 0 242 26" fill="none" xmlns="http://www.w3.org/2000/svg">
<path d="M29.1665 11.3737V0H0L29.1665 11.3737Z" fill="url(#paint0_linear_1034_45865)"/>
<path d="M0 0L29.1665 5.79453V0H0Z" fill="url(#paint1_linear_1034_45865)"/>
<path d="M8.81055 7.64648V15.5951H29.1668L8.81055 7.64648Z" fill="url(#paint2_linear_1034_45865)"/>
<path d="M29.1668 15.5966L8.81055 11.5469V15.5966H29.1668Z" fill="url(#paint3_linear_1034_45865)"/>
<path d="M29.1657 26V19.3223H18.1582L29.1657 26Z" fill="url(#paint4_linear_1034_45865)"/>
<path d="M18.1582 19.3223L29.1657 22.575V19.3223H18.1582Z" fill="url(#paint5_linear_1034_45865)"/>
<path d="M42.5761 21.0126C42.1022 21.2926 41.5637 21.508 40.9821 21.6588C40.4005 21.8096 39.8404 21.8958 39.2803 21.8958C38.074 21.8958 37.0616 21.508 36.3077 20.7541C35.5322 20.0002 35.166 18.9446 35.166 17.6091V5.82617H38.8495V9.38044H42.3823V11.9438H38.8495V16.9844C38.8495 17.5876 38.9572 18.0184 39.1942 18.32C39.4311 18.6215 39.7542 18.7723 40.1635 18.7723C40.6805 18.7723 41.219 18.6215 41.8222 18.2984L42.5761 21.0126Z" fill="#0A2540"/>
<path d="M54.1645 9.53243C55.22 10.071 56.017 10.8464 56.5986 11.8373C57.1802 12.8282 57.4602 13.9914 57.4602 15.3054C57.4602 16.5979 57.1802 17.7611 56.5986 18.752C56.017 19.7429 55.1984 20.5183 54.1645 21.0784C53.109 21.6385 51.9027 21.897 50.5456 21.897C49.167 21.897 47.9607 21.6169 46.9051 21.0569C45.8496 20.4968 45.0526 19.7213 44.471 18.7304C43.8894 17.7395 43.6094 16.5763 43.6094 15.2839C43.6094 13.9699 43.8894 12.8282 44.471 11.8373C45.0526 10.8464 45.8712 10.071 46.9051 9.53243C47.9607 8.9939 49.167 8.71387 50.5456 8.71387C51.9242 8.71387 53.1305 8.97236 54.1645 9.53243ZM48.2191 12.7636C47.616 13.4098 47.3144 14.2714 47.3144 15.327C47.3144 16.3825 47.616 17.2441 48.2191 17.8903C48.8223 18.5581 49.5978 18.8812 50.5671 18.8812C51.5149 18.8812 52.2904 18.5581 52.8935 17.8903C53.4967 17.2441 53.7983 16.3825 53.7983 15.327C53.7983 14.2714 53.4967 13.4098 52.8935 12.7636C52.2904 12.1173 51.5149 11.7727 50.5671 11.7727C49.5978 11.7727 48.8223 12.0958 48.2191 12.7636Z" fill="#0A2540"/>
<path d="M72.1955 8.84283L72.1739 21.7674H68.4904V19.4841C67.6072 21.0997 66.164 21.9182 64.1607 21.8967C62.739 21.8967 61.5973 21.4443 60.7572 20.5611C59.9171 19.678 59.5078 18.4717 59.5078 16.9422V8.82129H63.2129V15.8867C63.2129 16.7053 63.4283 17.3515 63.8591 17.8039C64.2899 18.2778 64.8931 18.4932 65.6255 18.4932C66.5086 18.4717 67.198 18.1701 67.7149 17.5669C68.2319 16.9638 68.4904 16.1668 68.4904 15.219V8.82129L72.1955 8.84283Z" fill="#0A2540"/>
<path d="M81.2214 9.3601C81.9322 8.95082 82.7723 8.73541 83.7417 8.71387V12.2035C83.6124 12.182 83.4185 12.182 83.1601 12.182C82.0184 12.182 81.1137 12.4835 80.4674 13.1082C79.7997 13.7329 79.4765 14.5515 79.4765 15.5639V21.7893H75.7715L75.793 8.86465H79.4981V11.1911C79.9289 10.3725 80.5105 9.76938 81.2214 9.3601Z" fill="#0A2540"/>
<path d="M97.3763 10.071C98.2379 10.9757 98.6687 12.1604 98.6472 13.6683V21.7893H94.9421V14.7453C94.9421 13.9268 94.7052 13.2806 94.2528 12.8067C93.8005 12.3328 93.1758 12.0958 92.4003 12.0958C91.4956 12.1173 90.7632 12.4189 90.2462 13.0436C89.7077 13.6683 89.4492 14.4438 89.4492 15.4131V21.7677H85.7441L85.7657 8.84311H89.4707V11.1049C90.3755 9.53242 91.8618 8.73541 93.9297 8.71387C95.373 8.71387 96.5146 9.16623 97.3763 10.071Z" fill="#0A2540"/>
<path d="M109.331 21.7896V20.2818C108.9 20.8203 108.34 21.2511 107.651 21.5311C106.961 21.8112 106.164 21.962 105.281 21.962C103.924 21.962 102.847 21.5958 102.05 20.8418C101.253 20.0879 100.844 19.1186 100.844 17.9338C100.844 16.7275 101.275 15.7797 102.136 15.0904C102.998 14.4011 104.204 14.0564 105.777 14.0564H109.331V13.8195C109.331 13.1301 109.094 12.5916 108.642 12.2254C108.189 11.8592 107.521 11.6654 106.638 11.6654C105.432 11.6654 104.161 12.0316 102.804 12.7855L101.662 10.2437C102.696 9.72667 103.644 9.36047 104.549 9.12352C105.454 8.88657 106.423 8.75732 107.5 8.75732C109.223 8.75732 110.559 9.1666 111.528 9.98516C112.476 10.8037 112.971 11.9454 112.971 13.3886L112.993 21.8112L109.331 21.7896ZM108.297 18.7739C108.857 18.4077 109.202 17.9338 109.309 17.3737V16.2105H106.401C105.69 16.2105 105.152 16.3182 104.807 16.5552C104.463 16.7921 104.29 17.1583 104.29 17.6753C104.29 18.1707 104.463 18.5585 104.829 18.8601C105.195 19.1616 105.69 19.3124 106.315 19.3124C107.069 19.3124 107.737 19.1401 108.297 18.7739Z" fill="#0A2540"/>
<path d="M123.291 21.078C122.817 21.358 122.279 21.5735 121.697 21.7242C121.115 21.875 120.555 21.9612 119.995 21.9612C118.789 21.9612 117.776 21.5735 117.023 20.8195C116.247 20.0656 115.881 19.0101 115.881 17.6745V5.8916H119.564V9.44587H123.097V12.0092H119.564V17.0498C119.564 17.653 119.672 18.0838 119.909 18.3854C120.146 18.687 120.469 18.8377 120.878 18.8377C121.395 18.8377 121.934 18.687 122.537 18.3638L123.291 21.078Z" fill="#0A2540"/>
<path d="M135.719 10.5878C136.796 11.7941 137.335 13.4527 137.335 15.6068C137.335 15.9946 137.335 16.2961 137.313 16.49H128.051C128.266 17.3086 128.654 17.9333 129.257 18.4072C129.839 18.8595 130.571 19.0965 131.39 19.0965C131.993 19.0965 132.574 18.9888 133.134 18.7518C133.695 18.5149 134.19 18.1702 134.642 17.7394L136.581 19.6996C135.913 20.432 135.138 20.9921 134.19 21.3798C133.264 21.7676 132.208 21.9614 131.067 21.9614C129.709 21.9614 128.525 21.6814 127.491 21.1429C126.478 20.6043 125.681 19.8289 125.143 18.838C124.583 17.8471 124.324 16.7054 124.324 15.413C124.324 14.099 124.604 12.9357 125.164 11.9449C125.724 10.954 126.5 10.1785 127.512 9.61843C128.525 9.05837 129.666 8.79987 130.98 8.79987C133.07 8.77833 134.642 9.38148 135.719 10.5878ZM133.867 14.2928C133.845 13.4527 133.565 12.7634 133.048 12.2464C132.531 11.7295 131.864 11.471 131.002 11.471C130.205 11.471 129.537 11.7295 128.999 12.2249C128.46 12.7203 128.115 13.4097 127.986 14.2713L133.867 14.2928Z" fill="#0A2540"/>
<path d="M152.521 4.01758L152.499 21.832H148.816V19.9364C148.342 20.6042 147.782 21.1211 147.093 21.4658C146.403 21.8105 145.628 21.9828 144.745 21.9828C143.538 21.9828 142.461 21.7027 141.535 21.1427C140.609 20.5826 139.898 19.8071 139.402 18.7947C138.907 17.7823 138.648 16.6191 138.648 15.3051C138.648 14.0126 138.907 12.8709 139.402 11.88C139.898 10.8892 140.609 10.1137 141.513 9.57516C142.418 9.03663 143.474 8.7566 144.658 8.7566C146.489 8.7566 147.868 9.44591 148.837 10.803V4.01758H152.521ZM147.933 17.9977C148.536 17.3299 148.837 16.4683 148.837 15.4128C148.837 14.3573 148.536 13.4956 147.933 12.8278C147.329 12.1601 146.554 11.837 145.606 11.837C144.637 11.837 143.861 12.1601 143.258 12.8278C142.655 13.4956 142.353 14.3573 142.332 15.4128C142.353 16.4683 142.655 17.3299 143.258 17.9977C143.861 18.6655 144.637 18.9886 145.606 18.9886C146.576 18.9886 147.329 18.6655 147.933 17.9977Z" fill="#0A2540"/>
<defs>
<linearGradient id="paint0_linear_1034_45865" x1="19.8646" y1="-2.75335" x2="-8.90885" y2="43.2533" gradientUnits="userSpaceOnUse">
<stop stop-color="#FF5733"/>
<stop offset="1" stop-color="#FFC300"/>
</linearGradient>
<linearGradient id="paint1_linear_1034_45865" x1="6.99249" y1="-2.61844" x2="29.7176" y2="5.20741" gradientUnits="userSpaceOnUse">
<stop stop-color="#FF5733"/>
<stop offset="1" stop-color="#FFC300"/>
</linearGradient>
<linearGradient id="paint2_linear_1034_45865" x1="15.3104" y1="17.5126" x2="35.3935" y2="-14.5987" gradientUnits="userSpaceOnUse">
<stop stop-color="#FF5733"/>
<stop offset="1" stop-color="#FFC300"/>
</linearGradient>
<linearGradient id="paint3_linear_1034_45865" x1="24.2948" y1="17.4199" x2="8.43334" y2="11.9577" gradientUnits="userSpaceOnUse">
<stop stop-color="#FF5733"/>
<stop offset="1" stop-color="#FFC300"/>
</linearGradient>
<linearGradient id="paint4_linear_1034_45865" x1="19.3339" y1="32.9159" x2="31.6155" y2="3.86537" gradientUnits="userSpaceOnUse">
<stop stop-color="#FF5733"/>
<stop offset="1" stop-color="#FFC300"/>
</linearGradient>
<linearGradient id="paint5_linear_1034_45865" x1="17.4304" y1="17.9195" x2="27.4702" y2="20.5141" gradientUnits="userSpaceOnUse">
<stop stop-color="#FF5733"/>
<stop offset="1" stop-color="#FFC300"/>
</linearGradient>
</defs>
</svg>
