<svg width="20" height="20" viewBox="0 0 20 20" fill="none" xmlns="http://www.w3.org/2000/svg">
<path d="M10 2.5C10.9849 2.5 11.9602 2.69399 12.8701 3.0709C13.7801 3.44781 14.6069 4.00026 15.3033 4.6967C15.9997 5.39314 16.5522 6.21993 16.9291 7.12987C17.306 8.03982 17.5 9.01509 17.5 10C17.5 10.9849 17.306 11.9602 16.9291 12.8701C16.5522 13.7801 15.9997 14.6069 15.3033 15.3033C14.6069 15.9997 13.7801 16.5522 12.8701 16.9291C11.9602 17.306 10.9849 17.5 10 17.5C9.01509 17.5 8.03982 17.306 7.12987 16.9291C6.21993 16.5522 5.39314 15.9997 4.6967 15.3033C4.00026 14.6069 3.44781 13.7801 3.0709 12.8701C2.69399 11.9602 2.5 10.9849 2.5 10C2.5 9.01509 2.69399 8.03982 3.0709 7.12987C3.44781 6.21993 4.00026 5.39314 4.6967 4.6967C5.39314 4.00026 6.21993 3.44781 7.12987 3.0709C8.03982 2.69399 9.01509 2.5 10 2.5ZM10 2.5C9.55797 2.5 9.13405 2.67559 8.82149 2.98816C8.50893 3.30072 8.33333 3.72464 8.33333 4.16667C8.33333 4.60869 8.50893 5.03262 8.82149 5.34518C9.13405 5.65774 9.55797 5.83333 10 5.83333M7.5 8.33333H7.50833M12.5 8.33333H12.5083M7.91667 12.5C8.18823 12.7772 8.51237 12.9974 8.87011 13.1477C9.22784 13.298 9.61197 13.3754 10 13.3754C10.388 13.3754 10.7722 13.298 11.1299 13.1477C11.4876 12.9974 11.8118 12.7772 12.0833 12.5" stroke="#0A2540" stroke-width="1.5" stroke-linecap="round" stroke-linejoin="round"/>
</svg>
