<svg width="16" height="16" viewBox="0 0 16 16" fill="none" xmlns="http://www.w3.org/2000/svg">
<path d="M12 5.33317V3.33317C12 3.15636 11.9298 2.98679 11.8047 2.86177C11.6797 2.73674 11.5101 2.6665 11.3333 2.6665H2.66667C2.48986 2.6665 2.32029 2.73674 2.19526 2.86177C2.07024 2.98679 2 3.15636 2 3.33317V11.3332C2 11.51 2.07024 11.6796 2.19526 11.8046C2.32029 11.9296 2.48986 11.9998 2.66667 11.9998H8.66667M10.6667 5.99984H12M8.66667 5.99984C8.66667 5.82303 8.7369 5.65346 8.86193 5.52843C8.98695 5.40341 9.15652 5.33317 9.33333 5.33317H13.3333C13.5101 5.33317 13.6797 5.40341 13.8047 5.52843C13.9298 5.65346 14 5.82303 14 5.99984V12.6665C14 12.8433 13.9298 13.0129 13.8047 13.1379C13.6797 13.2629 13.5101 13.3332 13.3333 13.3332H9.33333C9.15652 13.3332 8.98695 13.2629 8.86193 13.1379C8.7369 13.0129 8.66667 12.8433 8.66667 12.6665V5.99984Z" stroke="#FF5733" stroke-linecap="round" stroke-linejoin="round"/>
</svg>
