<svg width="4" height="7" viewBox="0 0 4 7" fill="none" xmlns="http://www.w3.org/2000/svg">
<path d="M3.59961 3.5C3.59618 3.36189 3.55162 3.24352 3.45906 3.13698L0.792068 0.13416C0.713224 0.0473506 0.620667 0 0.507543 0C0.277866 0 0.0996094 0.205186 0.0996094 0.46956C0.0996094 0.595829 0.144174 0.714205 0.223018 0.804961L2.62263 3.5L0.223018 6.19504C0.144174 6.2858 0.0996094 6.40023 0.0996094 6.53044C0.0996094 6.79481 0.277866 7 0.507543 7C0.617239 7 0.713224 6.95265 0.792068 6.86584L3.45906 3.85908C3.55505 3.75648 3.59961 3.63811 3.59961 3.5Z" fill="white"/>
</svg>
